<?xml version="1.0" standalone="no"?>
<!DOCTYPE svg PUBLIC "-//W3C//DTD SVG 20010904//EN"
 "http://www.w3.org/TR/2001/REC-SVG-20010904/DTD/svg10.dtd">
<svg version="1.0" xmlns="http://www.w3.org/2000/svg"
 width="376.000000pt" height="376.000000pt" viewBox="0 0 376.000000 376.000000"
 preserveAspectRatio="xMidYMid meet">
<metadata>
Created by potrace 1.14, written by Peter Selinger 2001-2017
</metadata>
<g transform="translate(0.000000,376.000000) scale(0.100000,-0.100000)"
fill="#000000" stroke="none">
<path d="M1798 3755 c-2 -2 -39 -5 -83 -8 -220 -17 -469 -87 -670 -189 -44
-22 -90 -46 -102 -52 -13 -6 -23 -14 -23 -18 0 -5 -5 -8 -11 -8 -9 0 -153 -94
-169 -110 -3 -3 -32 -27 -65 -55 -242 -203 -436 -476 -548 -771 -36 -94 -83
-261 -92 -329 -3 -22 -7 -49 -10 -60 -25 -119 -25 -345 0 -545 23 -185 118
-472 204 -619 17 -29 31 -54 31 -56 0 -4 96 -149 114 -173 136 -171 280 -313
395 -392 20 -13 45 -32 55 -42 11 -10 23 -18 27 -18 5 0 27 -13 51 -29 63 -42
212 -116 316 -155 94 -36 298 -89 387 -101 28 -3 66 -9 85 -12 50 -8 336 -7
394 1 47 7 174 29 226 40 245 52 560 209 768 384 121 102 320 319 352 387 3 5
22 36 42 67 144 219 252 543 275 823 22 267 -9 521 -92 770 -47 139 -162 370
-227 455 -107 140 -147 187 -221 262 -306 307 -689 491 -1132 543 -50 6 -273
14 -277 10z"/>
</g>
</svg>
