<svg width="70" height="70" viewBox="0 0 70 70" fill="none" xmlns="http://www.w3.org/2000/svg">
<g filter="url(#filter0_d_137:421)">
<circle cx="34.8001" cy="22.1051" r="16.7999" fill="#F53838"/>
</g>
<path d="M34.8 5.30518C25.5215 5.30518 18 12.8267 18 22.1052C18 31.3837 25.5215 38.9052 34.8 38.9052C44.0785 38.9052 51.6 31.3837 51.6 22.1052C51.6 12.8267 44.0785 5.30518 34.8 5.30518ZM38.7795 16.9147H36.2543C35.955 16.9147 35.6225 17.3084 35.6225 17.8317V19.6552H38.7813L38.3035 22.2557H35.6225V30.0624H32.6423V22.2557H29.9385V19.6552H32.6423V18.1257C32.6423 15.9312 34.1648 14.1479 36.2543 14.1479H38.7795V16.9147Z" fill="white"/>
<defs>
<filter id="filter0_d_137:421" x="0.00012207" y="0.305176" width="69.5999" height="69.6001" filterUnits="userSpaceOnUse" color-interpolation-filters="sRGB">
<feFlood flood-opacity="0" result="BackgroundImageFix"/>
<feColorMatrix in="SourceAlpha" type="matrix" values="0 0 0 0 0 0 0 0 0 0 0 0 0 0 0 0 0 0 127 0" result="hardAlpha"/>
<feOffset dy="13"/>
<feGaussianBlur stdDeviation="9"/>
<feColorMatrix type="matrix" values="0 0 0 0 0.0658854 0 0 0 0 0.0730469 0 0 0 0 0.1375 0 0 0 0.08 0"/>
<feBlend mode="normal" in2="BackgroundImageFix" result="effect1_dropShadow_137:421"/>
<feBlend mode="normal" in="SourceGraphic" in2="effect1_dropShadow_137:421" result="shape"/>
</filter>
</defs>
</svg>
