<svg width="135" height="20" viewBox="0 0 135 20" fill="none" xmlns="http://www.w3.org/2000/svg">
<path d="M0.184 1.192H2.488V19H0.184V1.192ZM19.1031 12.712C19.1031 12.888 19.0871 13.12 19.0551 13.408H8.73513C8.87913 14.528 9.36713 15.432 10.1991 16.12C11.0471 16.792 12.0951 17.128 13.3431 17.128C14.8631 17.128 16.0871 16.616 17.0151 15.592L18.2871 17.08C17.7111 17.752 16.9911 18.264 16.1271 18.616C15.2791 18.968 14.3271 19.144 13.2711 19.144C11.9271 19.144 10.7351 18.872 9.69513 18.328C8.65513 17.768 7.84713 16.992 7.27113 16C6.71113 15.008 6.43113 13.888 6.43113 12.64C6.43113 11.408 6.70313 10.296 7.24713 9.304C7.80713 8.312 8.56713 7.544 9.52713 7C10.5031 6.44 11.5991 6.16 12.8151 6.16C14.0311 6.16 15.1111 6.44 16.0551 7C17.0151 7.544 17.7591 8.312 18.2871 9.304C18.8311 10.296 19.1031 11.432 19.1031 12.712ZM12.8151 8.104C11.7111 8.104 10.7831 8.44 10.0311 9.112C9.29513 9.784 8.86313 10.664 8.73513 11.752H16.8951C16.7671 10.68 16.3271 9.808 15.5751 9.136C14.8391 8.448 13.9191 8.104 12.8151 8.104ZM29.7664 6.16C30.9984 6.16 32.1024 6.432 33.0784 6.976C34.0544 7.52 34.8144 8.28 35.3584 9.256C35.9184 10.232 36.1984 11.36 36.1984 12.64C36.1984 13.92 35.9184 15.056 35.3584 16.048C34.8144 17.024 34.0544 17.784 33.0784 18.328C32.1024 18.872 30.9984 19.144 29.7664 19.144C28.8224 19.144 27.9584 18.96 27.1744 18.592C26.3904 18.224 25.7424 17.688 25.2304 16.984V19H23.0224V1.192H25.3264V8.2C25.8384 7.528 26.4784 7.024 27.2464 6.688C28.0144 6.336 28.8544 6.16 29.7664 6.16ZM29.5744 17.128C30.3904 17.128 31.1184 16.944 31.7584 16.576C32.4144 16.192 32.9264 15.664 33.2944 14.992C33.6784 14.304 33.8704 13.52 33.8704 12.64C33.8704 11.76 33.6784 10.984 33.2944 10.312C32.9264 9.624 32.4144 9.096 31.7584 8.728C31.1184 8.36 30.3904 8.176 29.5744 8.176C28.7744 8.176 28.0464 8.36 27.3904 8.728C26.7344 9.096 26.2224 9.624 25.8544 10.312C25.4864 10.984 25.3024 11.76 25.3024 12.64C25.3024 13.52 25.4864 14.304 25.8544 14.992C26.2224 15.664 26.7344 16.192 27.3904 16.576C28.0464 16.944 28.7744 17.128 29.5744 17.128ZM40.1018 6.28H42.4058V19H40.1018V6.28ZM41.2538 3.832C40.8058 3.832 40.4298 3.688 40.1258 3.4C39.8378 3.112 39.6938 2.76 39.6938 2.344C39.6938 1.928 39.8378 1.576 40.1258 1.288C40.4298 0.983999 40.8058 0.831999 41.2538 0.831999C41.7018 0.831999 42.0698 0.975999 42.3578 1.264C42.6618 1.536 42.8138 1.88 42.8138 2.296C42.8138 2.728 42.6618 3.096 42.3578 3.4C42.0698 3.688 41.7018 3.832 41.2538 3.832ZM54.3169 6.16C55.9329 6.16 57.2129 6.632 58.1569 7.576C59.1169 8.504 59.5969 9.872 59.5969 11.68V19H57.2929V11.944C57.2929 10.712 56.9969 9.784 56.4049 9.16C55.8129 8.536 54.9649 8.224 53.8609 8.224C52.6129 8.224 51.6289 8.592 50.9089 9.328C50.1889 10.048 49.8289 11.088 49.8289 12.448V19H47.5249V1.192H49.8289V8.08C50.3089 7.472 50.9329 7 51.7009 6.664C52.4849 6.328 53.3569 6.16 54.3169 6.16ZM76.6512 1.192V19H74.4432V16.984C73.9312 17.688 73.2832 18.224 72.4992 18.592C71.7152 18.96 70.8512 19.144 69.9072 19.144C68.6752 19.144 67.5712 18.872 66.5952 18.328C65.6192 17.784 64.8512 17.024 64.2912 16.048C63.7472 15.056 63.4752 13.92 63.4752 12.64C63.4752 11.36 63.7472 10.232 64.2912 9.256C64.8512 8.28 65.6192 7.52 66.5952 6.976C67.5712 6.432 68.6752 6.16 69.9072 6.16C70.8192 6.16 71.6592 6.336 72.4272 6.688C73.1952 7.024 73.8352 7.528 74.3472 8.2V1.192H76.6512ZM70.0992 17.128C70.8992 17.128 71.6272 16.944 72.2832 16.576C72.9392 16.192 73.4512 15.664 73.8192 14.992C74.1872 14.304 74.3712 13.52 74.3712 12.64C74.3712 11.76 74.1872 10.984 73.8192 10.312C73.4512 9.624 72.9392 9.096 72.2832 8.728C71.6272 8.36 70.8992 8.176 70.0992 8.176C69.2832 8.176 68.5472 8.36 67.8912 8.728C67.2512 9.096 66.7392 9.624 66.3552 10.312C65.9872 10.984 65.8032 11.76 65.8032 12.64C65.8032 13.52 65.9872 14.304 66.3552 14.992C66.7392 15.664 67.2512 16.192 67.8912 16.576C68.5472 16.944 69.2832 17.128 70.0992 17.128ZM93.2266 12.712C93.2266 12.888 93.2106 13.12 93.1786 13.408H82.8586C83.0026 14.528 83.4906 15.432 84.3226 16.12C85.1706 16.792 86.2186 17.128 87.4666 17.128C88.9866 17.128 90.2106 16.616 91.1386 15.592L92.4106 17.08C91.8346 17.752 91.1146 18.264 90.2506 18.616C89.4026 18.968 88.4506 19.144 87.3946 19.144C86.0506 19.144 84.8586 18.872 83.8186 18.328C82.7786 17.768 81.9706 16.992 81.3946 16C80.8346 15.008 80.5546 13.888 80.5546 12.64C80.5546 11.408 80.8266 10.296 81.3706 9.304C81.9306 8.312 82.6906 7.544 83.6506 7C84.6266 6.44 85.7226 6.16 86.9386 6.16C88.1546 6.16 89.2346 6.44 90.1786 7C91.1386 7.544 91.8826 8.312 92.4106 9.304C92.9546 10.296 93.2266 11.432 93.2266 12.712ZM86.9386 8.104C85.8346 8.104 84.9066 8.44 84.1546 9.112C83.4186 9.784 82.9866 10.664 82.8586 11.752H91.0186C90.8906 10.68 90.4506 9.808 89.6986 9.136C88.9626 8.448 88.0426 8.104 86.9386 8.104ZM102.09 13.072L99.4499 15.52V19H97.1459V1.192H99.4499V12.616L106.386 6.28H109.17L103.818 11.536L109.698 19H106.866L102.09 13.072ZM117.053 6.16C118.813 6.16 120.157 6.592 121.085 7.456C122.029 8.32 122.501 9.608 122.501 11.32V19H120.317V17.32C119.933 17.912 119.381 18.368 118.661 18.688C117.957 18.992 117.117 19.144 116.141 19.144C114.717 19.144 113.573 18.8 112.709 18.112C111.861 17.424 111.437 16.52 111.437 15.4C111.437 14.28 111.845 13.384 112.661 12.712C113.477 12.024 114.773 11.68 116.549 11.68H120.197V11.224C120.197 10.232 119.909 9.472 119.333 8.944C118.757 8.416 117.909 8.152 116.789 8.152C116.037 8.152 115.301 8.28 114.581 8.536C113.861 8.776 113.253 9.104 112.757 9.52L111.797 7.792C112.453 7.264 113.237 6.864 114.149 6.592C115.061 6.304 116.029 6.16 117.053 6.16ZM116.525 17.368C117.405 17.368 118.165 17.176 118.805 16.792C119.445 16.392 119.909 15.832 120.197 15.112V13.336H116.645C114.693 13.336 113.717 13.992 113.717 15.304C113.717 15.944 113.965 16.448 114.461 16.816C114.957 17.184 115.645 17.368 116.525 17.368ZM134.636 18.256C134.3 18.544 133.884 18.768 133.388 18.928C132.892 19.072 132.38 19.144 131.852 19.144C130.572 19.144 129.58 18.8 128.876 18.112C128.172 17.424 127.82 16.44 127.82 15.16V8.176H125.66V6.28H127.82V3.496H130.124V6.28H133.772V8.176H130.124V15.064C130.124 15.752 130.292 16.28 130.628 16.648C130.98 17.016 131.476 17.2 132.116 17.2C132.82 17.2 133.42 17 133.916 16.6L134.636 18.256Z" fill="white"/>
</svg>
