<svg width="141" height="19" viewBox="0 0 141 19" fill="none" xmlns="http://www.w3.org/2000/svg">
<path d="M0.184 0.916608H2.488V18.7246H0.184V0.916608ZM19.1031 12.4366C19.1031 12.6126 19.0871 12.8446 19.0551 13.1326H8.73513C8.87913 14.2526 9.36713 15.1566 10.1991 15.8446C11.0471 16.5166 12.0951 16.8526 13.3431 16.8526C14.8631 16.8526 16.0871 16.3406 17.0151 15.3166L18.2871 16.8046C17.7111 17.4766 16.9911 17.9886 16.1271 18.3406C15.2791 18.6926 14.3271 18.8686 13.2711 18.8686C11.9271 18.8686 10.7351 18.5966 9.69513 18.0526C8.65513 17.4926 7.84713 16.7166 7.27113 15.7246C6.71113 14.7326 6.43113 13.6126 6.43113 12.3646C6.43113 11.1326 6.70313 10.0206 7.24713 9.02861C7.80713 8.03661 8.56713 7.26861 9.52713 6.72461C10.5031 6.16461 11.5991 5.88461 12.8151 5.88461C14.0311 5.88461 15.1111 6.16461 16.0551 6.72461C17.0151 7.26861 17.7591 8.03661 18.2871 9.02861C18.8311 10.0206 19.1031 11.1566 19.1031 12.4366ZM12.8151 7.82861C11.7111 7.82861 10.7831 8.16461 10.0311 8.83661C9.29513 9.50861 8.86313 10.3886 8.73513 11.4766H16.8951C16.7671 10.4046 16.3271 9.53261 15.5751 8.86061C14.8391 8.17261 13.9191 7.82861 12.8151 7.82861ZM29.7664 5.88461C30.9984 5.88461 32.1024 6.15661 33.0784 6.70061C34.0544 7.24461 34.8144 8.00461 35.3584 8.98061C35.9184 9.95661 36.1984 11.0846 36.1984 12.3646C36.1984 13.6446 35.9184 14.7806 35.3584 15.7726C34.8144 16.7486 34.0544 17.5086 33.0784 18.0526C32.1024 18.5966 30.9984 18.8686 29.7664 18.8686C28.8224 18.8686 27.9584 18.6846 27.1744 18.3166C26.3904 17.9486 25.7424 17.4126 25.2304 16.7086V18.7246H23.0224V0.916608H25.3264V7.92461C25.8384 7.25261 26.4784 6.74861 27.2464 6.41261C28.0144 6.06061 28.8544 5.88461 29.7664 5.88461ZM29.5744 16.8526C30.3904 16.8526 31.1184 16.6686 31.7584 16.3006C32.4144 15.9166 32.9264 15.3886 33.2944 14.7166C33.6784 14.0286 33.8704 13.2446 33.8704 12.3646C33.8704 11.4846 33.6784 10.7086 33.2944 10.0366C32.9264 9.34861 32.4144 8.82061 31.7584 8.45261C31.1184 8.08461 30.3904 7.90061 29.5744 7.90061C28.7744 7.90061 28.0464 8.08461 27.3904 8.45261C26.7344 8.82061 26.2224 9.34861 25.8544 10.0366C25.4864 10.7086 25.3024 11.4846 25.3024 12.3646C25.3024 13.2446 25.4864 14.0286 25.8544 14.7166C26.2224 15.3886 26.7344 15.9166 27.3904 16.3006C28.0464 16.6686 28.7744 16.8526 29.5744 16.8526ZM40.1018 6.00461H42.4058V18.7246H40.1018V6.00461ZM41.2538 3.55661C40.8058 3.55661 40.4298 3.41261 40.1258 3.12461C39.8378 2.83661 39.6938 2.48461 39.6938 2.06861C39.6938 1.65261 39.8378 1.30061 40.1258 1.01261C40.4298 0.708609 40.8058 0.556609 41.2538 0.556609C41.7018 0.556609 42.0698 0.700609 42.3578 0.988609C42.6618 1.26061 42.8138 1.60461 42.8138 2.02061C42.8138 2.45261 42.6618 2.82061 42.3578 3.12461C42.0698 3.41261 41.7018 3.55661 41.2538 3.55661ZM54.3169 5.88461C55.9329 5.88461 57.2129 6.35661 58.1569 7.30061C59.1169 8.22861 59.5969 9.59661 59.5969 11.4046V18.7246H57.2929V11.6686C57.2929 10.4366 56.9969 9.50861 56.4049 8.88461C55.8129 8.26061 54.9649 7.94861 53.8609 7.94861C52.6129 7.94861 51.6289 8.31661 50.9089 9.05261C50.1889 9.77261 49.8289 10.8126 49.8289 12.1726V18.7246H47.5249V0.916608H49.8289V7.80461C50.3089 7.19661 50.9329 6.72461 51.7009 6.38861C52.4849 6.05261 53.3569 5.88461 54.3169 5.88461ZM76.6512 0.916608V18.7246H74.4432V16.7086C73.9312 17.4126 73.2832 17.9486 72.4992 18.3166C71.7152 18.6846 70.8512 18.8686 69.9072 18.8686C68.6752 18.8686 67.5712 18.5966 66.5952 18.0526C65.6192 17.5086 64.8512 16.7486 64.2912 15.7726C63.7472 14.7806 63.4752 13.6446 63.4752 12.3646C63.4752 11.0846 63.7472 9.95661 64.2912 8.98061C64.8512 8.00461 65.6192 7.24461 66.5952 6.70061C67.5712 6.15661 68.6752 5.88461 69.9072 5.88461C70.8192 5.88461 71.6592 6.06061 72.4272 6.41261C73.1952 6.74861 73.8352 7.25261 74.3472 7.92461V0.916608H76.6512ZM70.0992 16.8526C70.8992 16.8526 71.6272 16.6686 72.2832 16.3006C72.9392 15.9166 73.4512 15.3886 73.8192 14.7166C74.1872 14.0286 74.3712 13.2446 74.3712 12.3646C74.3712 11.4846 74.1872 10.7086 73.8192 10.0366C73.4512 9.34861 72.9392 8.82061 72.2832 8.45261C71.6272 8.08461 70.8992 7.90061 70.0992 7.90061C69.2832 7.90061 68.5472 8.08461 67.8912 8.45261C67.2512 8.82061 66.7392 9.34861 66.3552 10.0366C65.9872 10.7086 65.8032 11.4846 65.8032 12.3646C65.8032 13.2446 65.9872 14.0286 66.3552 14.7166C66.7392 15.3886 67.2512 15.9166 67.8912 16.3006C68.5472 16.6686 69.2832 16.8526 70.0992 16.8526ZM93.2266 12.4366C93.2266 12.6126 93.2106 12.8446 93.1786 13.1326H82.8586C83.0026 14.2526 83.4906 15.1566 84.3226 15.8446C85.1706 16.5166 86.2186 16.8526 87.4666 16.8526C88.9866 16.8526 90.2106 16.3406 91.1386 15.3166L92.4106 16.8046C91.8346 17.4766 91.1146 17.9886 90.2506 18.3406C89.4026 18.6926 88.4506 18.8686 87.3946 18.8686C86.0506 18.8686 84.8586 18.5966 83.8186 18.0526C82.7786 17.4926 81.9706 16.7166 81.3946 15.7246C80.8346 14.7326 80.5546 13.6126 80.5546 12.3646C80.5546 11.1326 80.8266 10.0206 81.3706 9.02861C81.9306 8.03661 82.6906 7.26861 83.6506 6.72461C84.6266 6.16461 85.7226 5.88461 86.9386 5.88461C88.1546 5.88461 89.2346 6.16461 90.1786 6.72461C91.1386 7.26861 91.8826 8.03661 92.4106 9.02861C92.9546 10.0206 93.2266 11.1566 93.2266 12.4366ZM86.9386 7.82861C85.8346 7.82861 84.9066 8.16461 84.1546 8.83661C83.4186 9.50861 82.9866 10.3886 82.8586 11.4766H91.0186C90.8906 10.4046 90.4506 9.53261 89.6986 8.86061C88.9626 8.17261 88.0426 7.82861 86.9386 7.82861ZM102.09 12.7966L99.4499 15.2446V18.7246H97.1459V0.916608H99.4499V12.3406L106.386 6.00461H109.17L103.818 11.2606L109.698 18.7246H106.866L102.09 12.7966ZM117.053 5.88461C118.813 5.88461 120.157 6.31661 121.085 7.18061C122.029 8.04461 122.501 9.33261 122.501 11.0446V18.7246H120.317V17.0446C119.933 17.6366 119.381 18.0926 118.661 18.4126C117.957 18.7166 117.117 18.8686 116.141 18.8686C114.717 18.8686 113.573 18.5246 112.709 17.8366C111.861 17.1486 111.437 16.2446 111.437 15.1246C111.437 14.0046 111.845 13.1086 112.661 12.4366C113.477 11.7486 114.773 11.4046 116.549 11.4046H120.197V10.9486C120.197 9.95661 119.909 9.19661 119.333 8.66861C118.757 8.14061 117.909 7.87661 116.789 7.87661C116.037 7.87661 115.301 8.00461 114.581 8.26061C113.861 8.50061 113.253 8.82861 112.757 9.24461L111.797 7.51661C112.453 6.98861 113.237 6.58861 114.149 6.31661C115.061 6.02861 116.029 5.88461 117.053 5.88461ZM116.525 17.0926C117.405 17.0926 118.165 16.9006 118.805 16.5166C119.445 16.1166 119.909 15.5566 120.197 14.8366V13.0606H116.645C114.693 13.0606 113.717 13.7166 113.717 15.0286C113.717 15.6686 113.965 16.1726 114.461 16.5406C114.957 16.9086 115.645 17.0926 116.525 17.0926ZM134.636 17.9806C134.3 18.2686 133.884 18.4926 133.388 18.6526C132.892 18.7966 132.38 18.8686 131.852 18.8686C130.572 18.8686 129.58 18.5246 128.876 17.8366C128.172 17.1486 127.82 16.1646 127.82 14.8846V7.90061H125.66V6.00461H127.82V3.22061H130.124V6.00461H133.772V7.90061H130.124V14.7886C130.124 15.4766 130.292 16.0046 130.628 16.3726C130.98 16.7406 131.476 16.9246 132.116 16.9246C132.82 16.9246 133.42 16.7246 133.916 16.3246L134.636 17.9806ZM138.928 18.8686C138.48 18.8686 138.096 18.7166 137.776 18.4126C137.456 18.0926 137.296 17.6926 137.296 17.2126C137.296 16.7486 137.456 16.3646 137.776 16.0606C138.096 15.7406 138.48 15.5806 138.928 15.5806C139.376 15.5806 139.752 15.7326 140.056 16.0366C140.36 16.3406 140.512 16.7326 140.512 17.2126C140.512 17.6926 140.352 18.0926 140.032 18.4126C139.728 18.7166 139.36 18.8686 138.928 18.8686Z" fill="#173949"/>
</svg>
